<svg width="365" height="181" viewBox="0 0 365 181" fill="none" xmlns="http://www.w3.org/2000/svg">
<path d="M54.96 95.896C54.96 96.376 54.768 96.808 54.384 97.192C54.096 97.48 53.712 97.624 53.232 97.624H23.136C22.656 97.624 22.416 97.864 22.416 98.344V121.096C22.416 121.576 22.656 121.816 23.136 121.816H40.416C40.896 121.816 41.28 122.008 41.568 122.392C41.952 122.68 42.144 123.064 42.144 123.544V137.512C42.144 137.992 41.952 138.424 41.568 138.808C41.28 139.096 40.896 139.24 40.416 139.24H23.136C22.656 139.24 22.416 139.48 22.416 139.96V162.856C22.416 163.336 22.656 163.576 23.136 163.576H53.232C53.712 163.576 54.096 163.768 54.384 164.152C54.768 164.44 54.96 164.824 54.96 165.304V179.272C54.96 179.752 54.768 180.184 54.384 180.568C54.096 180.856 53.712 181 53.232 181H3.84C3.36 181 2.928 180.856 2.544 180.568C2.256 180.184 2.112 179.752 2.112 179.272V81.928C2.112 81.448 2.256 81.064 2.544 80.776C2.928 80.392 3.36 80.2 3.84 80.2H53.232C53.712 80.2 54.096 80.392 54.384 80.776C54.768 81.064 54.96 81.448 54.96 81.928V95.896Z" fill="#222625"/>
<path d="M111.333 81.352C111.717 80.584 112.437 80.2 113.493 80.2H130.197C130.677 80.2 131.061 80.392 131.349 80.776C131.733 81.064 131.925 81.448 131.925 81.928V179.272C131.925 179.752 131.733 180.184 131.349 180.568C131.061 180.856 130.677 181 130.197 181H113.349C112.869 181 112.437 180.856 112.053 180.568C111.765 180.184 111.621 179.752 111.621 179.272V114.616C111.621 114.232 111.525 114.04 111.333 114.04C111.141 114.04 110.949 114.184 110.757 114.472L99.5246 134.344C99.0446 135.112 98.6606 135.496 98.3726 135.496C98.0846 135.496 97.7006 135.112 97.2206 134.344L85.9886 114.472C85.7966 114.184 85.6046 114.04 85.4126 114.04C85.2206 114.04 85.1246 114.232 85.1246 114.616V179.272C85.1246 179.752 84.9326 180.184 84.5486 180.568C84.2606 180.856 83.8766 181 83.3966 181H66.5486C66.0686 181 65.6366 180.856 65.2526 180.568C64.9646 180.184 64.8206 179.752 64.8206 179.272V81.928C64.8206 81.448 64.9646 81.064 65.2526 80.776C65.6366 80.392 66.0686 80.2 66.5486 80.2H83.1086C84.0686 80.2 84.7886 80.584 85.2686 81.352L98.0846 104.248C98.3726 104.632 98.6606 104.632 98.9486 104.248L111.333 81.352Z" fill="#222625"/>
<path d="M174.815 80.056C180.095 80.056 184.799 81.352 188.927 83.944C193.055 86.536 196.223 90.184 198.431 94.888C200.735 99.496 201.887 104.776 201.887 110.728C201.887 119.656 199.487 126.808 194.687 132.184C189.887 137.56 183.599 140.248 175.823 140.248H165.023C164.543 140.248 164.303 140.488 164.303 140.968V179.272C164.303 179.752 164.111 180.184 163.727 180.568C163.439 180.856 163.055 181 162.575 181H145.727C145.247 181 144.815 180.856 144.431 180.568C144.143 180.184 143.999 179.752 143.999 179.272V81.784C143.999 81.304 144.143 80.92 144.431 80.632C144.815 80.248 145.247 80.056 145.727 80.056H174.815ZM171.359 124.408C174.431 124.408 176.879 123.256 178.703 120.952C180.623 118.552 181.583 115.288 181.583 111.16C181.583 106.936 180.623 103.624 178.703 101.224C176.879 98.824 174.431 97.624 171.359 97.624H165.023C164.543 97.624 164.303 97.864 164.303 98.344V123.688C164.303 124.168 164.543 124.408 165.023 124.408H171.359Z" fill="#222625"/>
<path d="M212.809 181C212.329 181 211.897 180.856 211.513 180.568C211.225 180.184 211.081 179.752 211.081 179.272V81.928C211.081 81.448 211.225 81.064 211.513 80.776C211.897 80.392 212.329 80.2 212.809 80.2H229.657C230.137 80.2 230.521 80.392 230.809 80.776C231.193 81.064 231.385 81.448 231.385 81.928V179.272C231.385 179.752 231.193 180.184 230.809 180.568C230.521 180.856 230.137 181 229.657 181H212.809Z" fill="#222625"/>
<path d="M284.012 181C282.956 181 282.284 180.52 281.996 179.56L270.908 139.816C270.716 139.432 270.476 139.24 270.188 139.24H265.292C264.812 139.24 264.572 139.48 264.572 139.96V179.272C264.572 179.752 264.38 180.184 263.996 180.568C263.708 180.856 263.324 181 262.844 181H245.996C245.516 181 245.084 180.856 244.7 180.568C244.412 180.184 244.268 179.752 244.268 179.272V81.928C244.268 81.448 244.412 81.064 244.7 80.776C245.084 80.392 245.516 80.2 245.996 80.2H275.084C280.364 80.2 285.068 81.496 289.196 84.088C293.324 86.584 296.492 90.136 298.7 94.744C301.004 99.352 302.156 104.632 302.156 110.584C302.156 116.248 301.052 121.24 298.844 125.56C296.732 129.88 293.756 133.24 289.916 135.64C289.724 135.736 289.58 135.88 289.484 136.072C289.388 136.168 289.388 136.312 289.484 136.504L302.732 178.984L302.876 179.56C302.876 180.52 302.348 181 301.292 181H284.012ZM265.292 97.624C264.812 97.624 264.572 97.864 264.572 98.344V122.968C264.572 123.448 264.812 123.688 265.292 123.688H271.772C274.748 123.688 277.148 122.536 278.972 120.232C280.892 117.832 281.852 114.664 281.852 110.728C281.852 106.696 280.892 103.528 278.972 101.224C277.148 98.824 274.748 97.624 271.772 97.624H265.292Z" fill="#222625"/>
<path d="M364.897 95.896C364.897 96.376 364.706 96.808 364.322 97.192C364.034 97.48 363.649 97.624 363.169 97.624H333.074C332.594 97.624 332.354 97.864 332.354 98.344V121.096C332.354 121.576 332.594 121.816 333.074 121.816H350.354C350.834 121.816 351.217 122.008 351.505 122.392C351.889 122.68 352.082 123.064 352.082 123.544V137.512C352.082 137.992 351.889 138.424 351.505 138.808C351.217 139.096 350.834 139.24 350.354 139.24H333.074C332.594 139.24 332.354 139.48 332.354 139.96V162.856C332.354 163.336 332.594 163.576 333.074 163.576H363.169C363.649 163.576 364.034 163.768 364.322 164.152C364.706 164.44 364.897 164.824 364.897 165.304V179.272C364.897 179.752 364.706 180.184 364.322 180.568C364.034 180.856 363.649 181 363.169 181H313.777C313.297 181 312.866 180.856 312.482 180.568C312.194 180.184 312.049 179.752 312.049 179.272V81.928C312.049 81.448 312.194 81.064 312.482 80.776C312.866 80.392 313.297 80.2 313.777 80.2H363.169C363.649 80.2 364.034 80.392 364.322 80.776C364.706 81.064 364.897 81.448 364.897 81.928V95.896Z" fill="#222625"/>
<path d="M38.592 49.44C38.592 55.392 36.8 59.968 33.216 63.168C29.632 66.368 24.992 67.968 19.296 67.968H1.152C0.832 67.968 0.544 67.872 0.288 67.68C0.0959997 67.424 0 67.136 0 66.816V1.92C0 1.6 0.0959997 1.344 0.288 1.152C0.544 0.895996 0.832 0.767996 1.152 0.767996H17.184C23.584 0.767996 28.576 2.304 32.16 5.376C35.808 8.448 37.632 13.024 37.632 19.104C37.632 25.44 35.456 30.048 31.104 32.928C30.848 33.12 30.816 33.312 31.008 33.504C36.064 37.088 38.592 42.4 38.592 49.44ZM14.016 12.384C13.696 12.384 13.536 12.544 13.536 12.864V27.936C13.536 28.256 13.696 28.416 14.016 28.416H17.472C19.648 28.416 21.344 27.744 22.56 26.4C23.776 24.992 24.384 23.04 24.384 20.544C24.384 17.92 23.776 15.904 22.56 14.496C21.408 13.088 19.712 12.384 17.472 12.384H14.016ZM18.24 56.256C20.352 56.256 22.016 55.488 23.232 53.952C24.448 52.416 25.056 50.24 25.056 47.424C25.056 44.608 24.448 42.368 23.232 40.704C22.016 39.04 20.384 38.208 18.336 38.208H14.016C13.696 38.208 13.536 38.368 13.536 38.688V55.776C13.536 56.096 13.696 56.256 14.016 56.256H18.24Z" fill="#222625"/>
<path d="M80.0445 11.232C80.0445 11.552 79.9165 11.84 79.6605 12.096C79.4685 12.288 79.2125 12.384 78.8925 12.384H58.8285C58.5085 12.384 58.3485 12.544 58.3485 12.864V28.032C58.3485 28.352 58.5085 28.512 58.8285 28.512H70.3485C70.6685 28.512 70.9245 28.64 71.1165 28.896C71.3725 29.088 71.5005 29.344 71.5005 29.664V38.976C71.5005 39.296 71.3725 39.584 71.1165 39.84C70.9245 40.032 70.6685 40.128 70.3485 40.128H58.8285C58.5085 40.128 58.3485 40.288 58.3485 40.608V55.872C58.3485 56.192 58.5085 56.352 58.8285 56.352H78.8925C79.2125 56.352 79.4685 56.48 79.6605 56.736C79.9165 56.928 80.0445 57.184 80.0445 57.504V66.816C80.0445 67.136 79.9165 67.424 79.6605 67.68C79.4685 67.872 79.2125 67.968 78.8925 67.968H45.9645C45.6445 67.968 45.3565 67.872 45.1005 67.68C44.9085 67.424 44.8125 67.136 44.8125 66.816V1.92C44.8125 1.6 44.9085 1.344 45.1005 1.152C45.3565 0.895996 45.6445 0.767996 45.9645 0.767996H78.8925C79.2125 0.767996 79.4685 0.895996 79.6605 1.152C79.9165 1.344 80.0445 1.6 80.0445 1.92V11.232Z" fill="#222625"/>
<path d="M99.7702 67.872C99.4502 67.872 99.1622 67.776 98.9062 67.584C98.7142 67.328 98.6183 67.04 98.6183 66.72V41.76L98.5223 41.184L85.0823 2.112C85.0183 1.984 84.9863 1.824 84.9863 1.632C84.9863 1.056 85.3383 0.767996 86.0423 0.767996H97.8503C98.5543 0.767996 99.0023 1.088 99.1943 1.72799L105.146 24.672C105.21 24.864 105.306 24.96 105.434 24.96C105.562 24.96 105.658 24.864 105.722 24.672L111.674 1.72799C111.866 1.088 112.314 0.767996 113.018 0.767996H124.826C125.21 0.767996 125.498 0.895996 125.69 1.152C125.882 1.344 125.914 1.664 125.786 2.112L112.25 41.184L112.154 41.76V66.72C112.154 67.04 112.026 67.328 111.77 67.584C111.578 67.776 111.322 67.872 111.002 67.872H99.7702Z" fill="#222625"/>
<path d="M148.557 68.736C142.669 68.736 137.965 67.008 134.445 63.552C130.925 60.096 129.165 55.488 129.165 49.728V19.008C129.165 13.248 130.925 8.64 134.445 5.184C137.965 1.728 142.669 0 148.557 0C154.445 0 159.149 1.728 162.669 5.184C166.253 8.64 168.045 13.248 168.045 19.008V49.728C168.045 55.488 166.253 60.096 162.669 63.552C159.149 67.008 154.445 68.736 148.557 68.736ZM148.557 57.12C150.349 57.12 151.789 56.512 152.877 55.296C153.965 54.016 154.509 52.352 154.509 50.304V18.432C154.509 16.384 153.965 14.752 152.877 13.536C151.789 12.256 150.349 11.616 148.557 11.616C146.765 11.616 145.325 12.256 144.237 13.536C143.213 14.752 142.701 16.384 142.701 18.432V50.304C142.701 52.352 143.213 54.016 144.237 55.296C145.325 56.512 146.765 57.12 148.557 57.12Z" fill="#222625"/>
<path d="M202.956 1.92C202.956 1.6 203.052 1.344 203.244 1.152C203.5 0.895996 203.788 0.767996 204.108 0.767996H215.244C215.564 0.767996 215.82 0.895996 216.012 1.152C216.268 1.344 216.396 1.6 216.396 1.92V66.816C216.396 67.136 216.268 67.424 216.012 67.68C215.82 67.872 215.564 67.968 215.244 67.968H202.572C201.932 67.968 201.516 67.648 201.324 67.008L189.42 29.856C189.356 29.664 189.228 29.6 189.036 29.664C188.908 29.664 188.844 29.76 188.844 29.952L188.94 66.816C188.94 67.136 188.812 67.424 188.556 67.68C188.364 67.872 188.108 67.968 187.788 67.968H176.652C176.332 67.968 176.044 67.872 175.788 67.68C175.596 67.424 175.5 67.136 175.5 66.816V1.92C175.5 1.6 175.596 1.344 175.788 1.152C176.044 0.895996 176.332 0.767996 176.652 0.767996H189.228C189.868 0.767996 190.284 1.088 190.476 1.72799L202.476 38.88C202.54 39.072 202.636 39.168 202.764 39.168C202.956 39.104 203.052 38.976 203.052 38.784L202.956 1.92Z" fill="#222625"/>
<path d="M225.965 67.968C225.645 67.968 225.356 67.872 225.1 67.68C224.908 67.424 224.812 67.136 224.812 66.816V1.92C224.812 1.6 224.908 1.344 225.1 1.152C225.356 0.895996 225.645 0.767996 225.965 0.767996H243.34C249.164 0.767996 253.837 2.464 257.357 5.856C260.877 9.248 262.637 13.76 262.637 19.392V49.344C262.637 54.976 260.877 59.488 257.357 62.88C253.837 66.272 249.164 67.968 243.34 67.968H225.965ZM238.348 55.872C238.348 56.192 238.509 56.352 238.829 56.352L243.148 56.256C244.876 56.192 246.284 55.456 247.372 54.048C248.46 52.64 249.037 50.784 249.101 48.48V20.256C249.101 17.824 248.557 15.904 247.469 14.496C246.381 13.088 244.909 12.384 243.053 12.384H238.829C238.509 12.384 238.348 12.544 238.348 12.864V55.872Z" fill="#222625"/>
<path d="M305.48 12C305.69 12 305.858 12.084 305.984 12.252C306.152 12.378 306.236 12.546 306.236 12.756V18.867C306.236 19.077 306.152 19.266 305.984 19.434C305.858 19.56 305.69 19.623 305.48 19.623H297.605C297.395 19.623 297.29 19.728 297.29 19.938V55.344C297.29 55.554 297.206 55.743 297.038 55.911C296.912 56.037 296.744 56.1 296.534 56.1H289.163C288.953 56.1 288.764 56.037 288.596 55.911C288.47 55.743 288.407 55.554 288.407 55.344V19.938C288.407 19.728 288.302 19.623 288.092 19.623H280.532C280.322 19.623 280.133 19.56 279.965 19.434C279.839 19.266 279.776 19.077 279.776 18.867V12.756C279.776 12.546 279.839 12.378 279.965 12.252C280.133 12.084 280.322 12 280.532 12H305.48Z" fill="#222625"/>
<path d="M326.319 12.756C326.319 12.546 326.382 12.378 326.508 12.252C326.676 12.084 326.865 12 327.075 12H334.446C334.656 12 334.824 12.084 334.95 12.252C335.118 12.378 335.202 12.546 335.202 12.756V55.344C335.202 55.554 335.118 55.743 334.95 55.911C334.824 56.037 334.656 56.1 334.446 56.1H327.075C326.865 56.1 326.676 56.037 326.508 55.911C326.382 55.743 326.319 55.554 326.319 55.344V38.145C326.319 37.935 326.214 37.83 326.004 37.83H319.704C319.494 37.83 319.389 37.935 319.389 38.145V55.344C319.389 55.554 319.305 55.743 319.137 55.911C319.011 56.037 318.843 56.1 318.633 56.1H311.262C311.052 56.1 310.863 56.037 310.695 55.911C310.569 55.743 310.506 55.554 310.506 55.344V12.756C310.506 12.546 310.569 12.378 310.695 12.252C310.863 12.084 311.052 12 311.262 12H318.633C318.843 12 319.011 12.084 319.137 12.252C319.305 12.378 319.389 12.546 319.389 12.756V29.892C319.389 30.102 319.494 30.207 319.704 30.207H326.004C326.214 30.207 326.319 30.102 326.319 29.892V12.756Z" fill="#222625"/>
<path d="M363.712 18.867C363.712 19.077 363.628 19.266 363.46 19.434C363.334 19.56 363.166 19.623 362.956 19.623H349.789C349.579 19.623 349.474 19.728 349.474 19.938V29.892C349.474 30.102 349.579 30.207 349.789 30.207H357.349C357.559 30.207 357.727 30.291 357.853 30.459C358.021 30.585 358.105 30.753 358.105 30.963V37.074C358.105 37.284 358.021 37.473 357.853 37.641C357.727 37.767 357.559 37.83 357.349 37.83H349.789C349.579 37.83 349.474 37.935 349.474 38.145V48.162C349.474 48.372 349.579 48.477 349.789 48.477H362.956C363.166 48.477 363.334 48.561 363.46 48.729C363.628 48.855 363.712 49.023 363.712 49.233V55.344C363.712 55.554 363.628 55.743 363.46 55.911C363.334 56.037 363.166 56.1 362.956 56.1H341.347C341.137 56.1 340.948 56.037 340.78 55.911C340.654 55.743 340.591 55.554 340.591 55.344V12.756C340.591 12.546 340.654 12.378 340.78 12.252C340.948 12.084 341.137 12 341.347 12H362.956C363.166 12 363.334 12.084 363.46 12.252C363.628 12.378 363.712 12.546 363.712 12.756V18.867Z" fill="#222625"/>
<rect x="364.776" y="8" width="86" height="7.99999" rx="1" transform="rotate(-180 364.776 8)" fill="#BDBDBD"/>
<path d="M364.776 68C364.776 68.5523 364.328 69 363.776 69L279.776 69C279.224 69 278.776 68.5523 278.776 68L278.776 62C278.776 61.4477 279.224 61 279.776 61L363.776 61C364.328 61 364.776 61.4477 364.776 62L364.776 68Z" fill="#BDBDBD"/>
</svg>
