<svg width="194" height="199" viewBox="0 0 194 199" fill="none" xmlns="http://www.w3.org/2000/svg">
<path d="M11.5 0L0 11V23L11.5 34H182.5L194 23V11L182.5 0H11.5Z" fill="#0000FF"/>
<path d="M11.5 38L0 49V61L11.5 72H182.5L194 61V49L182.5 38H11.5Z" fill="#0000FF"/>
<path d="M11.5 76L0 87V99L11.5 110H182.5L194 99V87L182.5 76H11.5Z" fill="#0000FF"/>
<path d="M11.5 114L0 125V188L11.5 199H182.5L194 188V125L182.5 114H11.5Z" fill="#0000FF"/>
<path d="M39.5 10L28 24V133.5L39.5 147.5H153.5L165 133.5V24L153.5 10H39.5Z" fill="black"/>
<path d="M43.2445 15L32.5 28.0327V129.967L43.2445 143H149.755L160.5 129.967V28.0327L149.755 15H43.2445Z" fill="white"/>
<path d="M89.0928 74.248H94.6582C98.1549 74.1947 100.904 73.2738 102.906 71.4854C104.908 69.6969 105.909 67.2812 105.909 64.2383C105.909 57.4049 102.506 53.9883 95.6992 53.9883C92.4961 53.9883 89.9336 54.9092 88.0117 56.751C86.1165 58.5661 85.1689 60.9818 85.1689 63.998H77.7617C77.7617 59.3802 79.4434 55.5498 82.8066 52.5068C86.1966 49.4372 90.4941 47.9023 95.6992 47.9023C101.198 47.9023 105.509 49.3571 108.632 52.2666C111.755 55.1761 113.316 59.2201 113.316 64.3984C113.316 66.9342 112.489 69.39 110.834 71.7656C109.206 74.1413 106.977 75.9163 104.147 77.0908C107.351 78.1051 109.82 79.7868 111.555 82.1357C113.316 84.4847 114.197 87.3542 114.197 90.7441C114.197 95.9759 112.489 100.127 109.072 103.196C105.656 106.266 101.211 107.801 95.7393 107.801C90.2673 107.801 85.8096 106.319 82.3662 103.356C78.9495 100.394 77.2412 96.4831 77.2412 91.625H84.6885C84.6885 94.6947 85.6895 97.1504 87.6914 98.9922C89.6934 100.834 92.376 101.755 95.7393 101.755C99.3161 101.755 102.052 100.821 103.947 98.9521C105.842 97.0837 106.79 94.401 106.79 90.9043C106.79 87.5143 105.749 84.9118 103.667 83.0967C101.585 81.2816 98.582 80.3473 94.6582 80.2939H89.0928V74.248Z" fill="black"/>
<rect x="8" y="158" width="177" height="32" rx="7" fill="#00FF00"/>
<path d="M41.7441 184V164.094H47.3633C49.0951 164.094 50.6263 164.477 51.957 165.242C53.2878 166.008 54.3132 167.097 55.0332 168.51C55.7624 169.923 56.1315 171.545 56.1406 173.377V174.648C56.1406 176.526 55.776 178.171 55.0469 179.584C54.3268 180.997 53.2923 182.081 51.9434 182.838C50.6035 183.594 49.0404 183.982 47.2539 184H41.7441ZM44.3691 166.254V181.854H47.1309C49.1543 181.854 50.7266 181.225 51.8477 179.967C52.9779 178.709 53.543 176.918 53.543 174.594V173.432C53.543 171.171 53.0098 169.417 51.9434 168.168C50.8861 166.91 49.3822 166.272 47.4316 166.254H44.3691ZM70.8105 178.805H62.4707L60.5977 184H57.8906L65.4922 164.094H67.7891L75.4043 184H72.7109L70.8105 178.805ZM63.2637 176.645H70.0312L66.6406 167.334L63.2637 176.645ZM81.4746 164.094L87.9824 180.336L94.4902 164.094H97.8945V184H95.2695V176.248L95.5156 167.881L88.9805 184H86.9707L80.4492 167.922L80.709 176.248V184H78.084V164.094H81.4746ZM113.768 178.805H105.428L103.555 184H100.848L108.449 164.094H110.746L118.361 184H115.668L113.768 178.805ZM106.221 176.645H112.988L109.598 167.334L106.221 176.645ZM135.574 181.389C134.9 182.355 133.956 183.079 132.744 183.562C131.541 184.036 130.137 184.273 128.533 184.273C126.911 184.273 125.471 183.895 124.213 183.139C122.955 182.373 121.98 181.288 121.287 179.885C120.604 178.481 120.253 176.854 120.234 175.004V173.268C120.234 170.269 120.932 167.945 122.326 166.295C123.73 164.645 125.699 163.82 128.232 163.82C130.311 163.82 131.983 164.354 133.25 165.42C134.517 166.477 135.292 167.981 135.574 169.932H132.949C132.457 167.298 130.889 165.98 128.246 165.98C126.487 165.98 125.152 166.6 124.24 167.84C123.338 169.07 122.882 170.857 122.873 173.199V174.826C122.873 177.059 123.383 178.837 124.404 180.158C125.425 181.471 126.806 182.127 128.547 182.127C129.531 182.127 130.393 182.018 131.131 181.799C131.869 181.58 132.48 181.211 132.963 180.691V176.221H128.355V174.088H135.574V181.389ZM151.215 174.799H142.588V181.854H152.609V184H139.963V164.094H152.473V166.254H142.588V172.652H151.215V174.799Z" fill="black"/>
</svg>
